# Blender 4.0.1
# www.blender.org
mtllib soda_can.mtl
o cola
v 0.000000 -0.030043 0.126906
v 0.000000 -0.030095 0.124432
v 0.000000 -0.029284 0.124361
v 0.000000 -0.029349 0.123430
v 0.000000 -0.035997 0.110828
v 0.000000 -0.035809 0.009646
v 0.000000 -0.035430 0.007481
v 0.000000 -0.033824 0.006019
v 0.000000 -0.031624 0.004807
v 0.000000 -0.030331 0.002609
v 0.011497 -0.027756 0.126906
v 0.011517 -0.027804 0.124432
v 0.011207 -0.027055 0.124361
v 0.011232 -0.027115 0.123430
v 0.013775 -0.033257 0.110828
v 0.013704 -0.033083 0.009646
v 0.013559 -0.032733 0.007481
v 0.012944 -0.031250 0.006019
v 0.012102 -0.029217 0.004807
v 0.011607 -0.028022 0.002609
v 0.021244 -0.021244 0.126906
v 0.021281 -0.021281 0.124432
v 0.020707 -0.020707 0.124361
v 0.020753 -0.020753 0.123430
v 0.025453 -0.025453 0.110828
v 0.025321 -0.025321 0.009646
v 0.025053 -0.025053 0.007481
v 0.023917 -0.023917 0.006019
v 0.022362 -0.022362 0.004807
v 0.021447 -0.021447 0.002609
v 0.027756 -0.011497 0.126906
v 0.027804 -0.011517 0.124432
v 0.027055 -0.011207 0.124361
v 0.027115 -0.011232 0.123430
v 0.033257 -0.013775 0.110828
v 0.033083 -0.013704 0.009646
v 0.032733 -0.013559 0.007481
v 0.031250 -0.012944 0.006019
v 0.029217 -0.012102 0.004807
v 0.028022 -0.011607 0.002609
v 0.030043 -0.000000 0.126906
v 0.030095 -0.000000 0.124432
v 0.029284 -0.000000 0.124361
v 0.029349 -0.000000 0.123430
v 0.035997 -0.000000 0.110828
v 0.035809 -0.000000 0.009646
v 0.035430 -0.000000 0.007481
v 0.033824 -0.000000 0.006019
v 0.031624 -0.000000 0.004807
v 0.030331 -0.000000 0.002609
v 0.027756 0.011497 0.126906
v 0.027804 0.011517 0.124432
v 0.027055 0.011207 0.124361
v 0.027115 0.011231 0.123430
v 0.033257 0.013775 0.110828
v 0.033083 0.013704 0.009646
v 0.032733 0.013559 0.007481
v 0.031250 0.012944 0.006019
v 0.029217 0.012102 0.004807
v 0.028022 0.011607 0.002609
v 0.021244 0.021244 0.126906
v 0.021281 0.021281 0.124432
v 0.020707 0.020707 0.124361
v 0.020753 0.020753 0.123430
v 0.025453 0.025453 0.110828
v 0.025321 0.025321 0.009646
v 0.025053 0.025053 0.007481
v 0.023917 0.023917 0.006019
v 0.022362 0.022362 0.004807
v 0.021447 0.021447 0.002609
v 0.011497 0.027756 0.126906
v 0.011517 0.027804 0.124432
v 0.011207 0.027055 0.124361
v 0.011232 0.027115 0.123430
v 0.013775 0.033257 0.110828
v 0.013704 0.033083 0.009646
v 0.013559 0.032733 0.007481
v 0.012944 0.031250 0.006019
v 0.012102 0.029217 0.004807
v 0.011607 0.028022 0.002609
v 0.000000 0.030043 0.126906
v 0.000000 0.030095 0.124432
v 0.000000 0.029284 0.124361
v 0.000000 0.029349 0.123430
v 0.000000 0.035997 0.110828
v 0.000000 0.035809 0.009646
v 0.000000 0.035430 0.007481
v 0.000000 0.033824 0.006019
v 0.000000 0.031624 0.004807
v 0.000000 0.030331 0.002609
v -0.011497 0.027756 0.126906
v -0.011517 0.027804 0.124432
v -0.011207 0.027055 0.124361
v -0.011232 0.027115 0.123430
v -0.013775 0.033257 0.110828
v -0.013704 0.033083 0.009646
v -0.013559 0.032733 0.007481
v -0.012944 0.031250 0.006019
v -0.012102 0.029217 0.004807
v -0.011607 0.028022 0.002609
v -0.021244 0.021244 0.126906
v -0.021281 0.021281 0.124432
v -0.020707 0.020707 0.124361
v -0.020753 0.020753 0.123430
v -0.025453 0.025453 0.110828
v -0.025321 0.025321 0.009646
v -0.025053 0.025053 0.007481
v -0.023917 0.023917 0.006019
v -0.022362 0.022362 0.004807
v -0.021447 0.021447 0.002609
v -0.027756 0.011497 0.126906
v -0.027804 0.011517 0.124432
v -0.027055 0.011207 0.124361
v -0.027115 0.011231 0.123430
v -0.033257 0.013775 0.110828
v -0.033083 0.013704 0.009646
v -0.032733 0.013559 0.007481
v -0.031250 0.012944 0.006019
v -0.029217 0.012102 0.004807
v -0.028022 0.011607 0.002609
v -0.030043 -0.000000 0.126906
v -0.030095 -0.000000 0.124432
v -0.029284 -0.000000 0.124361
v -0.029349 -0.000000 0.123430
v -0.035997 -0.000000 0.110828
v -0.035809 -0.000000 0.009646
v -0.035430 -0.000000 0.007481
v -0.033824 -0.000000 0.006019
v -0.031624 -0.000000 0.004807
v -0.030331 -0.000000 0.002609
v -0.027756 -0.011497 0.126906
v -0.027804 -0.011517 0.124432
v -0.027055 -0.011207 0.124361
v -0.027115 -0.011232 0.123430
v -0.033257 -0.013775 0.110828
v -0.033083 -0.013704 0.009646
v -0.032733 -0.013559 0.007481
v -0.031250 -0.012944 0.006019
v -0.029217 -0.012102 0.004807
v -0.028022 -0.011607 0.002609
v -0.021244 -0.021244 0.126906
v -0.021281 -0.021281 0.124432
v -0.020707 -0.020707 0.124361
v -0.020753 -0.020753 0.123430
v -0.025453 -0.025453 0.110828
v -0.025321 -0.025321 0.009646
v -0.025053 -0.025053 0.007481
v -0.023917 -0.023917 0.006019
v -0.022362 -0.022362 0.004807
v -0.021447 -0.021447 0.002609
v -0.011497 -0.027756 0.126906
v -0.011517 -0.027804 0.124432
v -0.011207 -0.027055 0.124361
v -0.011232 -0.027115 0.123430
v -0.013775 -0.033257 0.110828
v -0.013704 -0.033083 0.009646
v -0.013559 -0.032733 0.007481
v -0.012944 -0.031250 0.006019
v -0.012102 -0.029217 0.004807
v -0.011607 -0.028022 0.002609
vn -0.0000 0.7392 0.6735
vn -0.7392 -0.0000 0.6735
vn -0.0000 -0.7392 0.6735
vn 0.2977 -0.7187 -0.6284
vn 0.2829 -0.6829 0.6735
vn 0.5227 -0.5227 0.6735
vn 0.7187 -0.2977 -0.6284
vn 0.6829 -0.2829 0.6735
vn 0.7392 -0.0000 0.6735
vn 0.7779 -0.0000 -0.6284
vn 0.6829 0.2829 0.6735
vn 0.5500 0.5500 -0.6284
vn 0.5227 0.5227 0.6735
vn 0.2977 0.7187 -0.6284
vn 0.2829 0.6829 0.6735
vn -0.0000 0.7779 -0.6284
vn -0.2977 0.7187 -0.6284
vn -0.2829 0.6829 0.6735
vn -0.5500 0.5500 -0.6284
vn -0.5227 0.5227 0.6735
vn -0.6829 0.2829 0.6735
vn -0.7187 0.2977 -0.6284
vn -0.7779 -0.0000 -0.6284
vn -0.6829 -0.2829 0.6735
vn -0.7187 -0.2977 -0.6284
vn -0.5227 -0.5227 0.6735
vn -0.5500 -0.5500 -0.6284
vn -0.2829 -0.6829 0.6735
vn -0.2977 -0.7187 -0.6284
vn -0.0000 -0.7779 -0.6284
vn 0.2748 -0.6633 -0.6960
vn 0.5077 -0.5077 -0.6960
vn 0.5500 -0.5500 -0.6284
vn 0.6633 -0.2748 -0.6960
vn 0.6633 0.2748 -0.6960
vn 0.7187 0.2977 -0.6284
vn 0.5077 0.5077 -0.6960
vn 0.2748 0.6634 -0.6960
vn -0.2748 0.6633 -0.6960
vn -0.5077 0.5077 -0.6960
vn -0.6634 0.2748 -0.6960
vn -0.7180 -0.0000 -0.6960
vn -0.6633 -0.2748 -0.6960
vn -0.5077 -0.5077 -0.6960
vn -0.2748 -0.6633 -0.6960
vn -0.0000 -0.9597 0.2810
vn -0.0000 -0.7180 -0.6960
vn 0.3673 -0.8867 0.2810
vn 0.8867 -0.3673 0.2810
vn 0.9597 -0.0000 0.2810
vn 0.7180 -0.0000 -0.6960
vn 0.8867 0.3673 0.2810
vn 0.3673 0.8867 0.2810
vn -0.0000 0.9597 0.2810
vn -0.0000 0.7180 -0.6960
vn -0.3673 0.8867 0.2810
vn -0.6786 0.6786 0.2810
vn -0.8867 0.3673 0.2810
vn -0.9597 -0.0000 0.2810
vn -0.8867 -0.3673 0.2810
vn -0.3673 -0.8867 0.2810
vn 0.3722 -0.8985 0.2327
vn 0.6786 -0.6786 0.2810
vn 0.6877 -0.6877 0.2327
vn 0.8985 -0.3722 0.2327
vn 0.8985 0.3722 0.2327
vn 0.6877 0.6877 0.2327
vn 0.6786 0.6786 0.2810
vn -0.0000 0.9725 0.2327
vn -0.3722 0.8985 0.2327
vn -0.8985 0.3722 0.2327
vn -0.9725 -0.0000 0.2327
vn -0.8985 -0.3722 0.2327
vn -0.6786 -0.6786 0.2810
vn -0.3722 -0.8985 0.2327
vn -0.0000 -0.9962 -0.0865
vn -0.0000 -0.9725 0.2327
vn 0.3812 -0.9204 -0.0865
vn 0.7045 -0.7045 -0.0865
vn 0.9204 -0.3812 -0.0865
vn 0.9725 -0.0000 0.2327
vn 0.9962 -0.0000 -0.0865
vn 0.9204 0.3812 -0.0865
vn 0.7045 0.7045 -0.0865
vn 0.3722 0.8985 0.2327
vn 0.3812 0.9204 -0.0865
vn -0.0000 0.9962 -0.0865
vn -0.3812 0.9204 -0.0865
vn -0.6877 0.6877 0.2327
vn -0.7045 0.7045 -0.0865
vn -0.9204 0.3812 -0.0865
vn -0.9962 -0.0000 -0.0865
vn -0.7045 -0.7045 -0.0865
vn -0.6877 -0.6877 0.2327
vn -0.3812 -0.9204 -0.0865
vn 0.3387 -0.8176 -0.4657
vn 0.6258 -0.6258 -0.4657
vn 0.8176 -0.3387 -0.4657
vn 0.8850 -0.0000 -0.4657
vn 0.8176 0.3387 -0.4657
vn 0.6258 0.6258 -0.4657
vn 0.3387 0.8176 -0.4657
vn -0.3387 0.8176 -0.4657
vn -0.6258 0.6258 -0.4657
vn -0.8176 0.3387 -0.4657
vn -0.8850 -0.0000 -0.4657
vn -0.9204 -0.3812 -0.0865
vn -0.8176 -0.3387 -0.4657
vn -0.3387 -0.8176 -0.4657
vn -0.0000 -0.5913 -0.8064
vn -0.0000 -0.8850 -0.4657
vn 0.2263 -0.5463 -0.8064
vn 0.5463 -0.2263 -0.8064
vn 0.5913 -0.0000 -0.8064
vn 0.5463 0.2263 -0.8064
vn 0.4181 0.4181 -0.8064
vn 0.2263 0.5463 -0.8064
vn -0.0000 0.8850 -0.4657
vn -0.0000 0.5913 -0.8064
vn -0.2263 0.5463 -0.8064
vn -0.5463 0.2263 -0.8064
vn -0.5463 -0.2263 -0.8064
vn -0.4181 -0.4181 -0.8064
vn -0.6258 -0.6258 -0.4657
vn -0.2263 -0.5463 -0.8064
vn 0.2600 -0.6277 -0.7338
vn 0.4804 -0.4804 -0.7338
vn 0.4181 -0.4181 -0.8064
vn 0.6277 -0.2600 -0.7338
vn 0.6277 0.2600 -0.7338
vn 0.4804 0.4804 -0.7338
vn 0.2600 0.6277 -0.7338
vn -0.0000 0.6794 -0.7338
vn -0.2600 0.6277 -0.7338
vn -0.4804 0.4804 -0.7338
vn -0.4181 0.4181 -0.8064
vn -0.6277 0.2600 -0.7338
vn -0.6794 -0.0000 -0.7338
vn -0.5913 -0.0000 -0.8064
vn -0.6277 -0.2600 -0.7338
vn -0.4804 -0.4804 -0.7338
vn -0.2600 -0.6277 -0.7338
vn -0.0000 -0.5404 -0.8414
vn -0.0000 -0.6794 -0.7338
vn 0.2068 -0.4992 -0.8414
vn 0.4992 -0.2068 -0.8414
vn 0.5404 -0.0000 -0.8414
vn 0.6794 -0.0000 -0.7338
vn 0.4992 0.2068 -0.8414
vn 0.3821 0.3821 -0.8414
vn 0.2068 0.4992 -0.8414
vn -0.0000 0.5404 -0.8414
vn -0.2068 0.4992 -0.8414
vn -0.3821 0.3821 -0.8414
vn -0.4992 0.2068 -0.8414
vn -0.5404 -0.0000 -0.8414
vn -0.4992 -0.2068 -0.8414
vn -0.2068 -0.4992 -0.8414
vn 0.3821 -0.3821 -0.8414
vn -0.3821 -0.3821 -0.8414
vt 0.192084 0.536754
vt 0.432649 0.587432
vt 0.384797 0.842209
vt 0.835325 0.724216
vt 0.823905 0.792524
vt 0.812281 0.784143
vt 0.769622 0.830220
vt 0.716479 0.869900
vt 0.713876 0.855391
vt 0.653690 0.855774
vt 0.650773 0.870129
vt 0.598542 0.831353
vt 0.545552 0.793643
vt 0.557267 0.786112
vt 0.523143 0.729521
vt 0.536566 0.727603
vt 0.526834 0.662556
vt 0.539775 0.665125
vt 0.546404 0.596775
vt 0.558979 0.604578
vt 0.591698 0.544855
vt 0.599709 0.557013
vt 0.654343 0.531146
vt 0.651611 0.516773
vt 0.714083 0.530386
vt 0.716923 0.516038
vt 0.769571 0.554607
vt 0.777496 0.542511
vt 0.812164 0.599993
vt 0.823938 0.592013
vt 0.835272 0.659558
vt 0.849089 0.656914
vt 0.000000 4.147725
vt 0.062500 4.145373
vt 0.062500 4.147725
vt 0.125000 4.145373
vt 0.125000 4.147725
vt 0.187500 4.147725
vt 0.187500 4.145373
vt 0.250000 4.147725
vt 0.312500 4.145373
vt 0.312500 4.147725
vt 0.375000 4.145373
vt 0.375000 4.147725
vt 0.437500 4.147725
vt 0.437500 4.145373
vt 0.500000 4.147725
vt 0.562500 4.145373
vt 0.562500 4.147725
vt 0.625000 4.145373
vt 0.625000 4.147725
vt 0.687500 4.145373
vt 0.687500 4.147725
vt 0.750000 4.145373
vt 0.750000 4.147725
vt 0.812500 4.145373
vt 0.812500 4.147725
vt 0.875000 4.145373
vt 0.875000 4.147725
vt 0.937500 4.145373
vt 0.937500 4.147725
vt 1.000000 4.147725
vt 0.115047 0.500882
vt 0.157338 0.503602
vt 0.115388 0.504545
vt 0.157064 0.499896
vt 0.185873 0.502438
vt 0.214525 0.498362
vt 0.214550 0.502099
vt 0.243579 0.499471
vt 0.243539 0.503242
vt 0.272777 0.502651
vt 0.272879 0.498854
vt 0.302149 0.502218
vt 0.331778 0.501643
vt 0.331480 0.503419
vt 0.360736 0.502950
vt 0.360343 0.502636
vt 0.381627 0.493340
vt 0.421958 0.502343
vt 0.382181 0.503688
vt 0.421580 0.486523
vt 0.462829 0.501748
vt 0.462669 0.483382
vt 0.504287 0.503189
vt 0.504249 0.482256
vt 0.546290 0.503737
vt 0.546331 0.482408
vt 0.588604 0.502957
vt 0.588662 0.483428
vt 0.630715 0.503595
vt 0.672477 0.488053
vt 0.672085 0.503894
vt 0.713247 0.494685
vt 0.712716 0.502721
vt 0.153011 0.453394
vt 0.185726 0.498721
vt 0.183659 0.450754
vt 0.213659 0.448877
vt 0.273915 0.449228
vt 0.304586 0.451178
vt 0.302332 0.498412
vt 0.369164 0.460687
vt 0.415809 0.435642
vt 0.502949 0.430464
vt 0.546235 0.429885
vt 0.589856 0.430085
vt 0.630885 0.484056
vt 0.678005 0.434998
vt 0.116559 0.090109
vt 0.115563 0.459577
vt 0.151624 0.095636
vt 0.183083 0.097797
vt 0.214085 0.098567
vt 0.243678 0.448466
vt 0.244696 0.098653
vt 0.275375 0.098349
vt 0.306619 0.097413
vt 0.336039 0.454650
vt 0.338018 0.095111
vt 0.366534 0.095997
vt 0.370202 0.440902
vt 0.413249 0.089774
vt 0.459637 0.432167
vt 0.458572 0.091794
vt 0.503448 0.092639
vt 0.547967 0.092995
vt 0.635956 0.092425
vt 0.633593 0.432387
vt 0.679990 0.090350
vt 0.724819 0.440342
vt 0.152032 0.090520
vt 0.183255 0.089746
vt 0.214154 0.090607
vt 0.244700 0.090725
vt 0.275316 0.090345
vt 0.306478 0.090594
vt 0.337643 0.090279
vt 0.369785 0.102373
vt 0.413811 0.081949
vt 0.458816 0.083961
vt 0.503547 0.084782
vt 0.547982 0.085279
vt 0.592027 0.093023
vt 0.591989 0.085434
vt 0.679453 0.082701
vt 0.724819 0.085013
vt 0.118452 0.081688
vt 0.117088 0.089987
vt 0.152439 0.082366
vt 0.214210 0.082638
vt 0.244686 0.082984
vt 0.275231 0.082329
vt 0.306312 0.082321
vt 0.337253 0.082366
vt 0.369025 0.090952
vt 0.369439 0.082398
vt 0.367301 0.084173
vt 0.414370 0.083715
vt 0.503641 0.082706
vt 0.591949 0.081761
vt 0.635588 0.081446
vt 0.635789 0.084785
vt 0.678891 0.082021
vt 0.721865 0.081895
vt 0.723725 0.083877
vt 0.665943 0.806361
vt 0.707604 0.797995
vt 0.709189 0.806427
vt 0.744384 0.781972
vt 0.748860 0.789032
vt 0.779118 0.756712
vt 0.772325 0.751980
vt 0.795248 0.714104
vt 0.786629 0.669667
vt 0.794652 0.668001
vt 0.772205 0.629953
vt 0.779061 0.625304
vt 0.744493 0.599457
vt 0.749096 0.592365
vt 0.707823 0.582800
vt 0.709474 0.574436
vt 0.667789 0.582527
vt 0.666229 0.573977
vt 0.630591 0.598654
vt 0.626090 0.591486
vt 0.602043 0.628867
vt 0.595155 0.623980
vt 0.586501 0.668505
vt 0.578411 0.666821
vt 0.586486 0.711422
vt 0.578411 0.713137
vt 0.601915 0.751065
vt 0.595079 0.755904
vt 0.625835 0.788635
vt 0.630397 0.781417
vt 0.669264 0.789315
vt 0.667541 0.797878
vt 0.706106 0.789441
vt 0.765482 0.747156
vt 0.779008 0.710853
vt 0.787140 0.712514
vt 0.778432 0.671263
vt 0.765211 0.634559
vt 0.739757 0.606568
vt 0.706068 0.591316
vt 0.669287 0.591122
vt 0.635125 0.606012
vt 0.608919 0.633832
vt 0.594668 0.670311
vt 0.594680 0.709789
vt 0.635101 0.774172
vt 0.854312 0.722272
vt 0.654845 0.863425
vt 0.521566 0.652174
vt 0.322277 0.869635
vt 0.254605 0.869635
vt 0.192084 0.842209
vt 0.144233 0.791531
vt 0.118336 0.725316
vt 0.118336 0.653646
vt 0.144233 0.587432
vt 0.254605 0.509327
vt 0.322277 0.509327
vt 0.384797 0.536754
vt 0.458546 0.653646
vt 0.458546 0.725316
vt 0.432649 0.791531
vt 0.849089 0.727315
vt 0.777332 0.842616
vt 0.590571 0.843266
vt 0.000000 4.145373
vt 0.250000 4.145373
vt 0.500000 4.145373
vt 1.000000 4.145373
vt 0.183410 0.081701
vt 0.367721 0.083129
vt 0.459030 0.084422
vt 0.548026 0.082404
vt 0.739886 0.774729
vt 0.608893 0.746255
vt 0.546894 0.587412
vt 0.593696 0.537846
vt 0.654845 0.511021
vt 0.721032 0.511021
vt 0.782182 0.537846
vt 0.828983 0.587412
vt 0.854312 0.652174
vt 0.828983 0.787033
vt 0.782182 0.836600
vt 0.721032 0.863425
vt 0.593696 0.836600
vt 0.546894 0.787033
vt 0.521566 0.722272
s 1
usemtl Cola
f 81/1/1 121/2/2 1/3/3
f 1/4/3 12/5/4 11/6/5
f 12/5/4 21/7/6 11/6/5
f 21/7/6 32/8/7 31/9/8
f 32/8/7 41/10/9 31/9/8
f 42/11/10 51/12/11 41/10/9
f 51/12/11 62/13/12 61/14/13
f 61/14/13 72/15/14 71/16/15
f 71/16/15 82/17/16 81/18/1
f 81/18/1 92/19/17 91/20/18
f 91/20/18 102/21/19 101/22/20
f 102/21/19 111/23/21 101/22/20
f 112/24/22 121/25/2 111/23/21
f 122/26/23 131/27/24 121/25/2
f 132/28/25 141/29/26 131/27/24
f 142/30/27 151/31/28 141/29/26
f 152/32/29 1/4/3 151/31/28
f 2/33/30 13/34/31 12/35/4
f 12/35/4 23/36/32 22/37/33
f 23/36/32 32/38/7 22/37/33
f 33/39/34 42/40/10 32/38/7
f 42/40/10 53/41/35 52/42/36
f 52/42/36 63/43/37 62/44/12
f 63/43/37 72/45/14 62/44/12
f 73/46/38 82/47/16 72/45/14
f 82/47/16 93/48/39 92/49/17
f 92/49/17 103/50/40 102/51/19
f 102/51/19 113/52/41 112/53/22
f 112/53/22 123/54/42 122/55/23
f 122/55/23 133/56/43 132/57/25
f 132/57/25 143/58/44 142/59/27
f 142/59/27 153/60/45 152/61/29
f 153/60/45 2/62/30 152/61/29
f 4/63/46 13/64/31 3/65/47
f 14/66/48 23/67/32 13/64/31
f 23/67/32 34/68/49 33/69/34
f 33/69/34 44/70/50 43/71/51
f 44/70/50 53/72/35 43/71/51
f 54/73/52 63/74/37 53/72/35
f 63/74/37 74/75/53 73/76/38
f 73/76/38 84/77/54 83/78/55
f 84/79/54 93/80/39 83/81/55
f 94/82/56 103/83/40 93/80/39
f 104/84/57 113/85/41 103/83/40
f 114/86/58 123/87/42 113/85/41
f 124/88/59 133/89/43 123/87/42
f 134/90/60 143/91/44 133/89/43
f 143/91/44 154/92/61 153/93/45
f 153/93/45 4/94/46 3/95/47
f 4/63/46 15/96/62 14/66/48
f 15/96/62 24/97/63 14/66/48
f 25/98/64 34/68/49 24/97/63
f 35/99/65 44/70/50 34/68/49
f 44/70/50 55/100/66 54/73/52
f 54/73/52 65/101/67 64/102/68
f 65/101/67 74/75/53 64/102/68
f 74/75/53 85/103/69 84/77/54
f 84/79/54 95/104/70 94/82/56
f 95/104/70 104/84/57 94/82/56
f 104/84/57 115/105/71 114/86/58
f 114/86/58 125/106/72 124/88/59
f 125/106/72 134/90/60 124/88/59
f 135/107/73 144/108/74 134/90/60
f 144/108/74 155/109/75 154/92/61
f 155/109/75 4/94/46 154/92/61
f 6/110/76 15/96/62 5/111/77
f 16/112/78 25/98/64 15/96/62
f 26/113/79 35/99/65 25/98/64
f 36/114/80 45/115/81 35/99/65
f 46/116/82 55/100/66 45/115/81
f 56/117/83 65/101/67 55/100/66
f 66/118/84 75/119/85 65/101/67
f 76/120/86 85/103/69 75/119/85
f 86/121/87 95/104/70 85/122/69
f 96/123/88 105/124/89 95/104/70
f 106/125/90 115/105/71 105/124/89
f 116/126/91 125/106/72 115/105/71
f 126/127/92 135/107/73 125/106/72
f 135/107/73 146/128/93 145/129/94
f 146/128/93 155/109/75 145/129/94
f 156/130/95 5/131/77 155/109/75
f 6/110/76 17/132/96 16/112/78
f 16/112/78 27/133/97 26/113/79
f 27/133/97 36/114/80 26/113/79
f 37/134/98 46/116/82 36/114/80
f 47/135/99 56/117/83 46/116/82
f 57/136/100 66/118/84 56/117/83
f 67/137/101 76/120/86 66/118/84
f 77/138/102 86/139/87 76/120/86
f 86/121/87 97/140/103 96/123/88
f 96/123/88 107/141/104 106/125/90
f 106/125/90 117/142/105 116/126/91
f 117/142/105 126/127/92 116/126/91
f 127/143/106 136/144/107 126/127/92
f 137/145/108 146/128/93 136/144/107
f 146/128/93 157/146/109 156/130/95
f 157/146/109 6/147/76 156/130/95
f 8/148/110 17/132/96 7/149/111
f 18/150/112 27/133/97 17/132/96
f 27/133/97 38/151/113 37/134/98
f 37/134/98 48/152/114 47/135/99
f 47/135/99 58/153/115 57/136/100
f 58/153/115 67/137/101 57/136/100
f 68/154/116 77/138/102 67/137/101
f 78/155/117 87/156/118 77/138/102
f 88/157/119 97/140/103 87/158/118
f 98/159/120 107/141/104 97/140/103
f 107/141/104 118/160/121 117/142/105
f 118/160/121 127/143/106 117/142/105
f 127/143/106 138/161/122 137/145/108
f 137/145/108 148/162/123 147/163/124
f 147/163/124 158/164/125 157/146/109
f 157/146/109 8/165/110 7/166/111
f 8/167/110 19/168/126 18/169/112
f 18/169/112 29/170/127 28/171/128
f 29/170/127 38/172/113 28/171/128
f 39/173/129 48/174/114 38/172/113
f 48/174/114 59/175/130 58/176/115
f 58/176/115 69/177/131 68/178/116
f 68/178/116 79/179/132 78/180/117
f 78/180/117 89/181/133 88/182/119
f 88/182/119 99/183/134 98/184/120
f 98/184/120 109/185/135 108/186/136
f 108/186/136 119/187/137 118/188/121
f 118/188/121 129/189/138 128/190/139
f 128/190/139 139/191/140 138/192/122
f 138/192/122 149/193/141 148/194/123
f 149/193/141 158/195/125 148/194/123
f 159/196/142 8/167/110 158/195/125
f 10/197/143 19/168/126 9/198/144
f 20/199/145 29/170/127 19/168/126
f 29/170/127 40/200/146 39/173/129
f 39/173/129 50/201/147 49/202/148
f 50/201/147 59/175/130 49/202/148
f 60/203/149 69/177/131 59/175/130
f 70/204/150 79/179/132 69/177/131
f 80/205/151 89/181/133 79/179/132
f 90/206/152 99/183/134 89/181/133
f 100/207/153 109/185/135 99/183/134
f 110/208/154 119/187/137 109/185/135
f 120/209/155 129/189/138 119/187/137
f 130/210/156 139/191/140 129/189/138
f 140/211/157 149/193/141 139/191/140
f 149/193/141 160/212/158 159/196/142
f 159/196/142 10/197/143 9/198/144
f 110/213/154 70/214/150 30/215/159
f 1/3/3 11/216/5 21/217/6
f 21/217/6 31/218/8 41/219/9
f 41/219/9 51/220/11 61/221/13
f 61/221/13 71/222/15 81/1/1
f 81/1/1 91/223/18 101/224/20
f 101/224/20 111/225/21 121/2/2
f 121/2/2 131/226/24 141/227/26
f 141/227/26 151/228/28 1/3/3
f 1/3/3 21/217/6 41/219/9
f 41/219/9 61/221/13 81/1/1
f 81/1/1 101/224/20 121/2/2
f 121/2/2 141/227/26 1/3/3
f 1/3/3 41/219/9 81/1/1
f 1/4/3 2/229/30 12/5/4
f 12/5/4 22/230/33 21/7/6
f 21/7/6 22/230/33 32/8/7
f 32/8/7 42/11/10 41/10/9
f 42/11/10 52/231/36 51/12/11
f 51/12/11 52/231/36 62/13/12
f 61/14/13 62/13/12 72/15/14
f 71/16/15 72/15/14 82/17/16
f 81/18/1 82/17/16 92/19/17
f 91/20/18 92/19/17 102/21/19
f 102/21/19 112/24/22 111/23/21
f 112/24/22 122/26/23 121/25/2
f 122/26/23 132/28/25 131/27/24
f 132/28/25 142/30/27 141/29/26
f 142/30/27 152/32/29 151/31/28
f 152/32/29 2/229/30 1/4/3
f 2/33/30 3/232/47 13/34/31
f 12/35/4 13/34/31 23/36/32
f 23/36/32 33/39/34 32/38/7
f 33/39/34 43/233/51 42/40/10
f 42/40/10 43/233/51 53/41/35
f 52/42/36 53/41/35 63/43/37
f 63/43/37 73/46/38 72/45/14
f 73/46/38 83/234/55 82/47/16
f 82/47/16 83/234/55 93/48/39
f 92/49/17 93/48/39 103/50/40
f 102/51/19 103/50/40 113/52/41
f 112/53/22 113/52/41 123/54/42
f 122/55/23 123/54/42 133/56/43
f 132/57/25 133/56/43 143/58/44
f 142/59/27 143/58/44 153/60/45
f 153/60/45 3/235/47 2/62/30
f 4/63/46 14/66/48 13/64/31
f 14/66/48 24/97/63 23/67/32
f 23/67/32 24/97/63 34/68/49
f 33/69/34 34/68/49 44/70/50
f 44/70/50 54/73/52 53/72/35
f 54/73/52 64/102/68 63/74/37
f 63/74/37 64/102/68 74/75/53
f 73/76/38 74/75/53 84/77/54
f 84/79/54 94/82/56 93/80/39
f 94/82/56 104/84/57 103/83/40
f 104/84/57 114/86/58 113/85/41
f 114/86/58 124/88/59 123/87/42
f 124/88/59 134/90/60 133/89/43
f 134/90/60 144/108/74 143/91/44
f 143/91/44 144/108/74 154/92/61
f 153/93/45 154/92/61 4/94/46
f 4/63/46 5/111/77 15/96/62
f 15/96/62 25/98/64 24/97/63
f 25/98/64 35/99/65 34/68/49
f 35/99/65 45/115/81 44/70/50
f 44/70/50 45/115/81 55/100/66
f 54/73/52 55/100/66 65/101/67
f 65/101/67 75/119/85 74/75/53
f 74/75/53 75/119/85 85/103/69
f 84/79/54 85/122/69 95/104/70
f 95/104/70 105/124/89 104/84/57
f 104/84/57 105/124/89 115/105/71
f 114/86/58 115/105/71 125/106/72
f 125/106/72 135/107/73 134/90/60
f 135/107/73 145/129/94 144/108/74
f 144/108/74 145/129/94 155/109/75
f 155/109/75 5/131/77 4/94/46
f 6/110/76 16/112/78 15/96/62
f 16/112/78 26/113/79 25/98/64
f 26/113/79 36/114/80 35/99/65
f 36/114/80 46/116/82 45/115/81
f 46/116/82 56/117/83 55/100/66
f 56/117/83 66/118/84 65/101/67
f 66/118/84 76/120/86 75/119/85
f 76/120/86 86/139/87 85/103/69
f 86/121/87 96/123/88 95/104/70
f 96/123/88 106/125/90 105/124/89
f 106/125/90 116/126/91 115/105/71
f 116/126/91 126/127/92 125/106/72
f 126/127/92 136/144/107 135/107/73
f 135/107/73 136/144/107 146/128/93
f 146/128/93 156/130/95 155/109/75
f 156/130/95 6/147/76 5/131/77
f 6/110/76 7/149/111 17/132/96
f 16/112/78 17/132/96 27/133/97
f 27/133/97 37/134/98 36/114/80
f 37/134/98 47/135/99 46/116/82
f 47/135/99 57/136/100 56/117/83
f 57/136/100 67/137/101 66/118/84
f 67/137/101 77/138/102 76/120/86
f 77/138/102 87/156/118 86/139/87
f 86/121/87 87/158/118 97/140/103
f 96/123/88 97/140/103 107/141/104
f 106/125/90 107/141/104 117/142/105
f 117/142/105 127/143/106 126/127/92
f 127/143/106 137/145/108 136/144/107
f 137/145/108 147/163/124 146/128/93
f 146/128/93 147/163/124 157/146/109
f 157/146/109 7/166/111 6/147/76
f 8/148/110 18/150/112 17/132/96
f 18/150/112 28/236/128 27/133/97
f 27/133/97 28/236/128 38/151/113
f 37/134/98 38/151/113 48/152/114
f 47/135/99 48/152/114 58/153/115
f 58/153/115 68/154/116 67/137/101
f 68/154/116 78/155/117 77/138/102
f 78/155/117 88/237/119 87/156/118
f 88/157/119 98/159/120 97/140/103
f 98/159/120 108/238/136 107/141/104
f 107/141/104 108/238/136 118/160/121
f 118/160/121 128/239/139 127/143/106
f 127/143/106 128/239/139 138/161/122
f 137/145/108 138/161/122 148/162/123
f 147/163/124 148/162/123 158/164/125
f 157/146/109 158/164/125 8/165/110
f 8/167/110 9/198/144 19/168/126
f 18/169/112 19/168/126 29/170/127
f 29/170/127 39/173/129 38/172/113
f 39/173/129 49/202/148 48/174/114
f 48/174/114 49/202/148 59/175/130
f 58/176/115 59/175/130 69/177/131
f 68/178/116 69/177/131 79/179/132
f 78/180/117 79/179/132 89/181/133
f 88/182/119 89/181/133 99/183/134
f 98/184/120 99/183/134 109/185/135
f 108/186/136 109/185/135 119/187/137
f 118/188/121 119/187/137 129/189/138
f 128/190/139 129/189/138 139/191/140
f 138/192/122 139/191/140 149/193/141
f 149/193/141 159/196/142 158/195/125
f 159/196/142 9/198/144 8/167/110
f 10/197/143 20/199/145 19/168/126
f 20/199/145 30/240/159 29/170/127
f 29/170/127 30/240/159 40/200/146
f 39/173/129 40/200/146 50/201/147
f 50/201/147 60/203/149 59/175/130
f 60/203/149 70/204/150 69/177/131
f 70/204/150 80/205/151 79/179/132
f 80/205/151 90/206/152 89/181/133
f 90/206/152 100/207/153 99/183/134
f 100/207/153 110/208/154 109/185/135
f 110/208/154 120/209/155 119/187/137
f 120/209/155 130/210/156 129/189/138
f 130/210/156 140/211/157 139/191/140
f 140/211/157 150/241/160 149/193/141
f 149/193/141 150/241/160 160/212/158
f 159/196/142 160/212/158 10/197/143
f 30/215/159 20/242/145 10/243/143
f 10/243/143 160/244/158 150/245/160
f 150/245/160 140/246/157 130/247/156
f 130/247/156 120/248/155 110/213/154
f 110/213/154 100/249/153 90/250/152
f 90/250/152 80/251/151 70/214/150
f 70/214/150 60/252/149 50/253/147
f 50/253/147 40/254/146 30/215/159
f 30/215/159 10/243/143 150/245/160
f 150/245/160 130/247/156 110/213/154
f 110/213/154 90/250/152 70/214/150
f 70/214/150 50/253/147 30/215/159
f 30/215/159 150/245/160 110/213/154
